<svg xmlns="http://www.w3.org/2000/svg" viewBox="0 0 240 240" role="img" aria-label="Emily Thompson client portrait">
  <defs>
    <linearGradient id="bg" x1="0" x2="1" y1="0" y2="1">
      <stop offset="0" stop-color="#fff7ed"/>
      <stop offset="1" stop-color="#ffffff"/>
    </linearGradient>
    <linearGradient id="top" x1="0" x2="1" y1="0" y2="1">
      <stop offset="0" stop-color="#ff8f00"/>
      <stop offset="1" stop-color="#e65100"/>
    </linearGradient>
  </defs>
  <rect width="240" height="240" rx="120" fill="url(#bg)"/>
  <path d="M72 107c-5-45 18-77 50-77 34 0 58 31 53 78-10-17-27-25-53-25-24 0-40 8-50 24z" fill="#4b2f24"/>
  <circle cx="122" cy="108" r="43" fill="#c98655"/>
  <path d="M78 97c24-4 47-15 62-34 11 20 22 30 38 35-4-42-26-66-56-66-31 0-52 25-44 65z" fill="#3f2a22"/>
  <circle cx="106" cy="107" r="4" fill="#111827"/>
  <circle cx="138" cy="107" r="4" fill="#111827"/>
  <path d="M109 132c9 7 20 7 29 0" fill="none" stroke="#8a4b2a" stroke-width="5" stroke-linecap="round"/>
  <path d="M51 225c7-48 38-74 71-74s64 26 71 74H51z" fill="url(#top)"/>
  <path d="M96 156l26 31 26-31" fill="#fff" opacity=".94"/>
  <circle cx="190" cy="58" r="16" fill="#ffd700"/>
  <path d="M182 58h16" stroke="#e65100" stroke-width="5" stroke-linecap="round"/>
</svg>
