<svg xmlns="http://www.w3.org/2000/svg" viewBox="0 0 240 240" role="img" aria-label="Sarah Chen client portrait">
  <defs>
    <linearGradient id="bg" x1="0" x2="1" y1="0" y2="1">
      <stop offset="0" stop-color="#fff"/>
      <stop offset="1" stop-color="#ffedd5"/>
    </linearGradient>
    <linearGradient id="jacket" x1="0" x2="1" y1="0" y2="1">
      <stop offset="0" stop-color="#e65100"/>
      <stop offset="1" stop-color="#ff8f00"/>
    </linearGradient>
  </defs>
  <rect width="240" height="240" rx="120" fill="url(#bg)"/>
  <path d="M70 100c0-43 24-70 54-70 32 0 56 28 56 72 0 44-23 69-55 69-34 0-55-27-55-71z" fill="#171717"/>
  <circle cx="125" cy="106" r="43" fill="#d69463"/>
  <path d="M77 97c22-3 44-14 63-35 12 19 28 30 42 34-5-39-26-62-58-62-31 0-52 25-47 63z" fill="#111827"/>
  <circle cx="109" cy="106" r="4" fill="#111827"/>
  <circle cx="141" cy="106" r="4" fill="#111827"/>
  <path d="M111 131c10 7 20 7 29 0" fill="none" stroke="#8a4b2a" stroke-width="5" stroke-linecap="round"/>
  <path d="M52 225c7-48 38-74 73-74s66 26 73 74H52z" fill="url(#jacket)"/>
  <path d="M98 156l27 32 27-32" fill="#fff" opacity=".94"/>
  <circle cx="189" cy="57" r="16" fill="#ffd700"/>
  <path d="M181 57h16" stroke="#e65100" stroke-width="5" stroke-linecap="round"/>
</svg>
