<svg xmlns="http://www.w3.org/2000/svg" viewBox="0 0 240 240" role="img" aria-label="David Miller client portrait">
  <defs>
    <linearGradient id="bg" x1="0" x2="1" y1="0" y2="1">
      <stop offset="0" stop-color="#f9fafb"/>
      <stop offset="1" stop-color="#fde68a"/>
    </linearGradient>
    <linearGradient id="vest" x1="0" x2="1" y1="0" y2="1">
      <stop offset="0" stop-color="#1f2937"/>
      <stop offset="1" stop-color="#ff8f00"/>
    </linearGradient>
  </defs>
  <rect width="240" height="240" rx="120" fill="url(#bg)"/>
  <circle cx="120" cy="106" r="43" fill="#b87446"/>
  <path d="M76 93c2-35 24-57 53-54 27 3 42 22 42 55-28-11-62-11-95-1z" fill="#1f2937"/>
  <circle cx="104" cy="106" r="4" fill="#111827"/>
  <circle cx="136" cy="106" r="4" fill="#111827"/>
  <path d="M108 130c8 7 18 7 27 0" fill="none" stroke="#743b20" stroke-width="5" stroke-linecap="round"/>
  <path d="M54 225c8-47 38-74 66-74s58 27 66 74H54z" fill="url(#vest)"/>
  <path d="M91 158l29 34 29-34" fill="#fff" opacity=".92"/>
  <path d="M83 76h74v17H83z" fill="#e65100"/>
  <path d="M92 54h56l9 22H83z" fill="#ff8f00"/>
  <circle cx="190" cy="58" r="16" fill="#e65100"/>
  <path d="M182 58h16" stroke="#fff" stroke-width="5" stroke-linecap="round"/>
</svg>
